<mxfile host="app.diagrams.net" modified="2023-10-25T02:02:15.218Z" agent="Mozilla/5.0 (Windows NT 10.0; Win64; x64) AppleWebKit/537.36 (KHTML, like Gecko) Chrome/118.0.0.0 Safari/537.36" version="22.0.7" etag="U3h0YG2YOoOx8G8pwZHi" type="github">
  <diagram name="第 1 页" id="FGrGxSRmitQIRBQrDkw8">
    <mxGraphModel>
      <root>
        <mxCell id="0" />
        <mxCell id="1" parent="0" />
      </root>
    </mxGraphModel>
  </diagram>
</mxfile>
